<?xml version="1.0" encoding="UTF-8" standalone="no"?>
<svg width="50px" height="50px" viewBox="0 0 50 50" version="1.1" xmlns="http://www.w3.org/2000/svg" xmlns:xlink="http://www.w3.org/1999/xlink">
    <!-- Generator: Sketch 3.8.1 (29687) - http://www.bohemiancoding.com/sketch -->
    <title>QQ</title>
    <desc>Created with Sketch.</desc>
    <defs></defs>
    <g id="Page-1" stroke="none" stroke-width="1" fill="none" fill-rule="evenodd">
        <g id="启动页-copy" transform="translate(-73.000000, -568.000000)" fill="#FFFFFF">
            <path d="M98,618 C111.807119,618 123,606.807119 123,593 C123,579.192881 111.807119,568 98,568 C84.1928806,568 73,579.192881 73,593 C73,606.807119 84.1928806,618 98,618 Z M98,616 C110.70255,616 121,605.70255 121,593 C121,580.29745 110.70255,570 98,570 C85.2974501,570 75,580.29745 75,593 C75,605.70255 85.2974501,616 98,616 Z M86.1596849,588.151107 C85.9904778,588.603648 86.2385622,588.890148 86.1596849,590.613093 C86.1384689,591.076522 84.1637295,593.174227 83.3800299,595.35294 C82.6025753,597.51429 82.4955942,599.77216 83.6958997,600.659555 C84.8962053,601.546951 86.0136514,597.705727 86.1596849,598.264647 C86.2233964,598.508492 86.3028472,598.762176 86.3984798,599.022804 C86.7826035,600.069658 87.4277976,601.22855 88.3627425,602.31197 C88.5526688,602.532058 87.2058403,602.936779 86.3984797,604.326607 C85.5911191,605.716434 86.6297918,608.243394 90.6450374,608.243393 C95.8253038,608.243393 96.983191,606.40031 97.0887831,606.408386 C97.4744993,606.437887 97.5011564,606.408387 97.9100449,606.408387 C98.4102793,606.408387 98.2033068,606.449083 98.6681326,606.408386 C98.9191651,606.386408 101.436815,608.614193 104.922356,608.243393 C110.860711,607.611656 109.952629,605.597665 109.486501,604.326607 C109.000001,603 107.279746,602.378376 107.355685,602.293448 C108.778228,600.702508 109.00364,599.725771 109.4865,598.264647 C109.684996,597.664004 111.062935,601.5692 112.12419,600.659555 C112.566409,600.280512 113.450844,598.70116 112.566409,595.35294 C111.681973,592.004719 109.971895,591.240932 110.00905,590.613093 C110.086383,589.306369 110.041484,588.388745 109.976275,588.151107 C109.660405,587 109,587.254168 109,587 C109,580.372583 104.075133,575 98,575 C91.9248675,575 87,580.372583 87,587 C87,587.52603 86.5387288,587.137362 86.1596849,588.151107 Z" id="QQ"></path>
        </g>
    </g>
</svg>