<?xml version="1.0" encoding="UTF-8" standalone="no"?>
<svg width="50px" height="50px" viewBox="0 0 50 50" version="1.1" xmlns="http://www.w3.org/2000/svg" xmlns:xlink="http://www.w3.org/1999/xlink">
    <!-- Generator: Sketch 3.8.1 (29687) - http://www.bohemiancoding.com/sketch -->
    <title>微博</title>
    <desc>Created with Sketch.</desc>
    <defs></defs>
    <g id="Page-1" stroke="none" stroke-width="1" fill="none" fill-rule="evenodd">
        <g id="启动页-copy" transform="translate(-202.000000, -503.000000)" fill="#FFFFFF">
            <path d="M224.581868,534.71349 C223.906665,534.820185 223.210865,534.875923 222.5,534.875923 C221.081319,534.875923 219.722638,534.653926 218.467936,534.247938 C217.836925,534.043759 215.531281,536.458366 214.958462,536.165949 C214.617191,535.991735 215.988173,533.137398 215.670726,532.934603 C212.837309,531.124522 211,528.216661 211,524.937961 C211,519.449377 216.148725,515 222.5,515 C228.488706,515 233.408241,518.955882 233.950398,524.008792 C238.987972,524.205878 243,527.691776 243,531.963141 C243,534.615719 241.452727,536.965376 239.073441,538.41256 C238.625314,538.68513 240.043712,540.983352 239.541335,541.187888 C239.231698,541.313952 237.016625,539.368667 236.689314,539.466427 C235.692455,539.764165 234.618813,539.926282 233.5,539.926282 C229.406549,539.926282 225.917792,537.756121 224.581868,534.71349 Z M224.056075,532.833361 C223.549757,532.90335 223.029946,532.939753 222.5,532.939753 C221.173784,532.939753 219.911041,532.711767 218.764418,532.299963 C218.650041,532.258886 218.242183,532.135825 218.021544,532.299964 C217.525556,532.668941 216.860465,533.434826 216.860465,533.434826 C216.860465,533.434826 217.103952,532.877153 217.185567,532.06278 C217.222858,531.690675 216.654947,531.429763 216.541607,531.353101 C214.381737,529.892179 213,527.478669 213,524.969877 C213,520.568235 217.253295,517 222.5,517 C227.398847,517 231.431644,520.11077 231.944861,524.106173 C227.437951,524.728255 224,528.00916 224,531.963141 C224,532.25721 224.019016,532.547555 224.056075,532.833361 Z M227,553 C240.807119,553 252,541.807119 252,528 C252,514.192881 240.807119,503 227,503 C213.192881,503 202,514.192881 202,528 C202,541.807119 213.192881,553 227,553 Z M227,551 C239.70255,551 250,540.70255 250,528 C250,515.29745 239.70255,505 227,505 C214.29745,505 204,515.29745 204,528 C204,540.70255 214.29745,551 227,551 Z M218.5,523 C219.328427,523 220,522.328427 220,521.5 C220,520.671573 219.328427,520 218.5,520 C217.671573,520 217,520.671573 217,521.5 C217,522.328427 217.671573,523 218.5,523 Z M226.5,523 C227.328427,523 228,522.328427 228,521.5 C228,520.671573 227.328427,520 226.5,520 C225.671573,520 225,520.671573 225,521.5 C225,522.328427 225.671573,523 226.5,523 Z M230,530 C230.552285,530 231,529.552285 231,529 C231,528.447715 230.552285,528 230,528 C229.447715,528 229,528.447715 229,529 C229,529.552285 229.447715,530 230,530 Z M236,530 C236.552285,530 237,529.552285 237,529 C237,528.447715 236.552285,528 236,528 C235.447715,528 235,528.447715 235,529 C235,529.552285 235.447715,530 236,530 Z" id="微博"></path>
        </g>
    </g>
</svg>