<?xml version="1.0" encoding="UTF-8" standalone="no"?>
<svg width="50px" height="50px" viewBox="0 0 50 50" version="1.1" xmlns="http://www.w3.org/2000/svg" xmlns:xlink="http://www.w3.org/1999/xlink">
    <!-- Generator: Sketch 3.8.1 (29687) - http://www.bohemiancoding.com/sketch -->
    <title>微信</title>
    <desc>Created with Sketch.</desc>
    <defs></defs>
    <g id="Page-1" stroke="none" stroke-width="1" fill="none" fill-rule="evenodd">
        <g id="启动页-copy" transform="translate(-195.000000, -409.000000)" fill="#FFFFFF">
            <path d="M220,459 C233.807119,459 245,447.807119 245,434 C245,420.192881 233.807119,409 220,409 C206.192881,409 195,420.192881 195,434 C195,447.807119 206.192881,459 220,459 Z M220,457 C232.70255,457 243,446.70255 243,434 C243,421.29745 232.70255,411 220,411 C207.29745,411 197,421.29745 197,434 C197,446.70255 207.29745,457 220,457 Z M217.5,447 C226.060414,447 232.933212,442.522848 232.933212,437 C232.933212,432.334301 227.090445,432.334301 227.090445,432.033127 C227.090445,431.731953 230,429.021391 227.090445,427.334818 C224.180889,425.648246 218.858948,428.212457 219.018991,427.937166 C221.307911,424 218.036296,422.756979 216.368663,422.756979 C212.39317,422.756979 202,431.477152 202,437 C202,442.522848 208.939586,447 217.5,447 Z M217.904625,443.936742 C223.373725,443.168111 227.402291,439.663184 226.902681,436.108269 C226.40307,432.553354 221.564475,430.294626 216.095375,431.063258 C210.626275,431.831889 206.597709,435.336816 207.097319,438.891731 C207.59693,442.446646 212.435525,444.705374 217.904625,443.936742 Z M216.89381,442.968371 C220.146637,442.336085 222.356433,439.62607 221.829528,436.915381 C221.302624,434.204692 218.238547,432.519813 214.98572,433.152099 C211.732894,433.784384 209.523098,436.4944 210.050002,439.205089 C210.576907,441.915777 213.640984,443.600656 216.89381,442.968371 Z M217,438 C217.552285,438 218,437.552285 218,437 C218,436.447715 217.552285,436 217,436 C216.447715,436 216,436.447715 216,437 C216,437.552285 216.447715,438 217,438 Z M214.694162,440.281105 C215.695242,439.814294 216.222959,438.827217 215.87285,438.076407 C215.522742,437.325597 214.427387,437.09537 213.426307,437.562181 C212.425227,438.028993 211.897511,439.01607 212.247619,439.76688 C212.597728,440.51769 213.693082,440.747916 214.694162,440.281105 Z M230.885232,424.925429 C229.07819,423.299091 226.990781,423.868979 226.990781,423.868979 C226.443588,423.94134 226,424.448883 226,424.99383 L226,424.71465 C226,425.263528 226.439556,425.679305 226.994147,425.675116 C226.994147,425.675116 228.716782,425.407307 229.680537,426.551767 C230.644293,427.696227 229.956652,429.268873 229.956652,429.268873 C229.804158,429.797527 230.127636,430.226085 230.68525,430.226085 L230.78404,430.226085 C231.338928,430.226085 231.875438,429.78933 231.95291,429.241445 C231.95291,429.241445 232.692274,426.551767 230.885232,424.925429 Z M234.258377,421.672754 C230.945467,418.540547 226.496957,418.98967 226.496957,418.98967 C225.670211,418.995375 225,419.674449 225,420.492665 L225,420.180089 C225,421.004465 225.679948,421.639227 226.492743,421.640038 C226.492743,421.640038 230.764763,421.14706 232.752509,424 C234.740254,426.852941 233.924435,430.006756 233.924435,430.006756 C233.809465,430.826489 234.385054,431.491014 235.21183,431.491014 L234.871027,431.491014 C235.697005,431.491014 236.458872,430.827963 236.534153,430.009051 C236.534153,430.009051 237.571287,424.80496 234.258377,421.672754 Z" id="微信"></path>
        </g>
    </g>
</svg>